<?xml version="1.0" encoding="utf-8"?>
<!-- Generator: Adobe Illustrator 17.1.0, SVG Export Plug-In . SVG Version: 6.00 Build 0)  -->
<!DOCTYPE svg PUBLIC "-//W3C//DTD SVG 1.1//EN" "http://www.w3.org/Graphics/SVG/1.1/DTD/svg11.dtd">
<svg version="1.1" id="Layer_1" xmlns="http://www.w3.org/2000/svg" xmlns:xlink="http://www.w3.org/1999/xlink" x="0px" y="0px"
	 width="665px" height="179.3px" viewBox="0 0 665 179.3" style="enable-background:new 0 0 665 179.3;" xml:space="preserve">
<g>
	<path d="M51,55.1c1.5,3.8,5.6,5.4,7.8,5.4c6.9,0,10.9-6.2,10.9-13.2c0-8.9-6.4-18.9-21.8-18.9c-16.4,0-28.3,11.2-28.3,26.2
		c0,24.7,26.9,27.7,26.9,49.3c0,9.9-5.2,18.7-16.3,18.7c-9.3,0-14.1-7.1-14.1-14.2c0-7.7,6.6-13.6,15.5-10.6c0.7-1.6,0.9-3,0.9-4.3
		c0-5.1-4.4-8.3-8.9-8.3c-14,0-21.4,10.9-21.4,22.3c0,12.5,8.7,25.5,27.4,25.5c20.2,0,35.5-12.2,35.5-33.1
		C65.1,76.7,37,71.4,37,52.1c0-8.6,4.3-16.3,12.6-16.3c5.6,0,8.2,4.2,8.2,8.6S55.3,53.8,51,55.1z"/>
	<path d="M278.9,54.3c-4.4-0.1-8.7,3.4-9,10.3c5.6,2.6,8.3,10.5,8.3,19.5c0,12.6-6.7,26.7-16.9,34.8c-2.8-6-4-12.9-4-20.2
		c0-10.1,2.1-21.2,4.7-33.1c-1.5-1.1-4-1.7-6.3-1.7c-4.8,0-10.1,2.3-11.3,8.5c-4.4,24-8.3,38.4-16.5,46.5
		c-2.7-5.2-3.8-12.4-3.8-20.3c0-8.9,1.3-18.5,3.2-27.3c1.1-5.1-1.6-7.4-6.4-7.4c-5.3,0-11.8,3.4-15,6.5c0,0,0,0,0,0
		c-5.6,4.6-10.6,10.3-16,13.7c-2.1-3.9-6-6.2-10.6-6.2c-7.7,0-10.6,6.7-7.8,14.1c1.5,0.9,3.8,1.5,6.2,1.6c0.4,1.9,0.7,3.8,0.7,5.5
		c0,12.1-8.6,22-15.5,22c-4.7,0-8.7-4.6-8.7-16.4c0-13.2,7.9-31.2,20.2-31.2c3.2,0,6,0.5,8.6,1.5c2,0.8,4.3-0.7,4.6-3.8
		c-4-6-9.4-7.9-16.1-7.9c-20.3,0-34.4,25.4-34.4,45.7c0,1.9,0.1,3.7,0.4,5.4c-3.4,2.9-8.5,5.6-12.9,5.6c-2.7,0-4.4-1.6-3.6-5.5
		l6.6-30.9c3.4-15.9-5.9-19.8-12.6-19.8c-6.9,0-12.8,5-17.9,12.2l7-32.9c1.1-5.1-1.6-7.4-6.4-7.4c-7.3,0-16.9,6.4-16.9,9.5
		c0,1.1,0.1,2.4,2,4.2c2.1-2.6,4.7-1.7,3.9,1.9l-17.1,80.1c1.6,1.1,3.2,1.3,5.6,1.3c4.8,0,9.9-2.3,11.3-8.5l8.5-38.2
		c3.6-4.3,7.7-7.1,12.5-7.1c4.4,0,4.2,3.6,3.2,7.9l-5.6,26.7c-3.4,15.7,3.8,19.1,10.5,19.1c8.6,0,17.3-5.7,23.5-12.4
		c2.7,7.3,8.5,12.4,17.9,12.4c16.1,0,35.1-20.3,35.1-40.8c0-0.4,0-0.9-0.1-1.5c5.5-3.5,10.7-9.8,14.2-12.8c0.2-0.1,0.3-0.3,0.4-0.4
		c0.7-0.7,1.5-1.2,2.3-1.2c0.9,0,1.9,0.7,1.5,2c-1.7,5.5-2.8,14.1-2.8,22.8c0,15.7,3.5,31.8,12.6,31.8c7.1,0,16-9.8,23.1-25.9
		c0.8,13.3,3.4,25.9,10.3,25.9c14.5,0,36.5-32.9,36.5-63.7C289.7,59.4,284.1,54.4,278.9,54.3z"/>
</g>
<g>
	<path style="fill-rule:evenodd;clip-rule:evenodd;" d="M468.1,132.9c6.9,0,13.9-3.7,19.6-8.6l-1.5,6.9c1.6,1.1,3.9,1.7,6.3,1.7
		c4.8,0,9.9-2.3,11.3-8.5l1.6-8.2c6.9-31,13.2-37.1,17.6-37.1c2.8,0,4.2,1.5,4.2,3.4c0,1.6-0.5,3.4-1.5,4.2c1.2,0.4,2.7,0.5,3.9,0.5
		c7,0,10.7-6.6,10.7-12.6c0-5.5-3.4-10.6-9.8-10.6c-6.2,0-12,3.8-17.3,14.6l1.5-7.3c1.1-5.1-1.6-7.4-6.4-7.4c-5.6,0-10.5,2.8-15,6.4
		c-2.7,2.1-1.7,6.3,0,7.4c1.2-1.1,2-1.6,2.7-1.6c1.2,0,1.7,1.2,1.3,3.4l-7.5,35.3c-3.4,2.8-8.2,5.2-12.5,5.2c-3.5,0-5.6-2.4-4-9.9
		l8.2-38.8c1.1-5.1-1.6-7.4-6.4-7.4c-5.6,0-10.5,2.8-15,6.4c-2.7,2.1-1.7,6.3,0,7.4c1.2-1.1,2-1.6,2.7-1.6c1.2,0,1.7,1.2,1.3,3.4
		l-7.8,37.4C453.6,129.1,461.4,132.9,468.1,132.9z"/>
	<path style="fill-rule:evenodd;clip-rule:evenodd;" d="M540.7,122.7c1.7,7.1,7.5,10.2,14.4,10.2c7.8,0,17.1-3.8,24-9.7
		c2.2,5.6,8.2,9.7,18.1,9.7c19.8,0,27.5-9.7,27.5-22.7c0-17.1-22-14-22-28.2c0-7.3,4.2-10.9,7.8-10.9c3.2,0,6,2.3,6,7.3
		c0,2.7-0.9,5.6-2.3,7.3c1.7,1.2,3.6,1.7,5.4,1.9c5,0.3,9.4-3.5,9.4-11c0-8.7-5.5-13-16.9-13c-15.6,0-23,9.9-23,20.7
		c0,20.2,22.2,18.9,22.2,29.2c0,6.6-5.5,10.7-10.6,10.7c-4.3,0-8.5-2.7-8.5-8.9c0-3.2,1.1-6.4,2.8-8.5c-1.5-1.3-3.2-1.9-5.4-1.9
		c-6.2,0-10,4.3-11.2,9.4c-4.3,3.4-9.8,5.7-14.2,5.7c-4.7,0-8.2-2.7-7.3-9.7c0.1-1.6,0.4-3.4,0.7-5c17.3-26.5,26.1-48,26.1-58.4
		c0-7-4.4-10.9-10.7-10.9c-17.5,0-26.5,27.8-32.5,75.5c-3.1,3.1-5.8,5.2-9.7,6C531.7,122.1,536.4,124.4,540.7,122.7z M574,44.8
		c1.5,0,2.3,0.7,2.3,3c0,4.6-5,23.6-16.8,45.5C564.1,64.9,569.6,44.8,574,44.8z"/>
	<path style="fill-rule:evenodd;clip-rule:evenodd;" d="M467.9,45.3c0.6,0.8,1.4,1.6,1.9,2.4c0.2,0.4,0.1,0.5,0,0.9
		c-0.4,0.9-0.6,1.9-0.9,2.9c-0.5,1.6-1.3,3.3-1.6,4.9c-0.1,0.4,0,0.7,0.3,1c0.7,0.7,2-0.1,2.7-0.4c1.2-0.4,2.3-0.9,3.5-1.3
		c0.6-0.2,1.2-0.4,1.8-0.6c0.5-0.2,1.1-0.5,1.6-0.3c0.6,0.3,1.1,0.7,1.6,1.1c0.6,0.4,1.2,0.9,1.7,1.3c1.2,0.9,2.3,1.7,3.5,2.6
		c0.3,0.2,0.5,0.3,0.7,0.3c1.1,0.1,1-1.5,0.9-2.1c-0.1-1.4-0.1-2.9-0.2-4.4c0-0.7-0.1-1.4-0.1-2.1c0-0.5,0-1.2,0.4-1.6
		c0.4-0.4,1-0.7,1.5-1.1c1.1-0.8,2.2-1.6,3.4-2.4c0.5-0.3,0.9-0.6,1.4-1c0.4-0.3,1-0.5,1.2-0.9c0.4-0.7-0.1-1.1-0.8-1.3
		c-2.6-0.7-5.1-1.5-7.7-2.3c-0.3-0.1-0.7-0.1-0.9-0.3c-0.4-0.3-0.5-1.1-0.7-1.6c-0.9-2.4-1.7-4.8-2.3-7.2c-0.2-0.8-0.6-0.9-1.2-0.1
		c-1.3,1.9-2.6,3.7-3.8,5.6c-0.4,0.6-0.8,1.6-1.4,1.9c-0.5,0.3-1.2,0.2-1.8,0.2c-2.4-0.2-4.7-0.3-7.1-0.1c-0.3,0-0.5,0.1-0.7,0.4
		c-0.5,0.8,0.5,1.8,0.9,2.4C466.3,43.2,467.1,44.3,467.9,45.3z"/>
	<path style="fill-rule:evenodd;clip-rule:evenodd;" d="M665,84.3c-1.8-0.8-21.5,22.5-19.1,24.8c2.8,2.7,6.8-5,9.2-6.4
		c-2.2,9.3-5,18.4-9,27c-2.4,5.2-5.4,10.2-8.9,14.6c-3.6,4.4-7.8,8.4-12.5,11.6c-9.3,6.6-20.4,10.5-31.6,12.4
		c-11.3,2-22.9,2.2-34.3,1.5c-11.5-0.7-22.9-2.5-34.2-4.7c-5.7-1.1-11.3-2.4-16.9-3.8c-5.6-1.4-11.2-2.8-16.7-4.5
		c-11-3.4-21.8-7.6-33-11.1c-5.6-1.7-11.3-3.3-17.1-4.5c-2.4-0.5-4.8-0.9-7.3-1.2c2.6-7.6,4.5-15.1,5.8-21.2
		c0.5-2.2,1.1-4.4,1.6-6.5c1.2-5,2.5-9.9,3.7-14.9c1.3-5.4,2.7-10.8,4-16.2c1-3.9,1.7-8,3-11.8c0.9-2.6,1.9-5.1,2.3-7.9
		c0.5-2.7,0.7-5.5,0.7-8.3c0-2.3-0.2-4.6-0.5-6.8c-0.1-0.9-0.2-2.5-0.9-3.2c-0.9-0.8-1.3,0.9-1.5,1.4c-0.3,0.8-0.4,1.7-0.6,2.5
		c-0.3,1.3-0.6,2.6-1,3.9c-1.2,4.1-3,8.6-6.2,11.6c-1.1,1-2.4,1.8-3.7,2.6c-0.3,0.1-3.7,2.3-3.4,2.6c-3.4-3-7.7-4.4-13.7-4.4
		c-1.9,0-3.7,0.2-5.5,0.7l-0.6-0.2l-1.2-0.5l-1.1-0.6l-1-0.7l-0.5-0.4l-0.5-0.4l-1-0.9l-0.9-1l-0.8-1.1l-0.8-1.2l-0.8-1.3l-0.7-1.4
		l-0.3-0.7l-0.3-0.7l-0.3-0.8l-0.3-0.8l-0.4-1l-0.3-0.8l-0.3-0.7l-0.3-0.6l-0.3-0.5l-0.3-0.4l-0.3-0.3l-0.2-0.2l-0.2-0.1l-0.2,0
		l-0.2,0.1l-0.2,0.3l-0.2,0.3l-0.1,0.5l-0.2,0.6l-0.1,0.7l-0.3,2.1l-0.2,2l0,1l0,1l0,1l0.1,1l0.1,0.9l0.1,1l0.4,1.9l0.4,1.8l0.3,0.9
		l0.3,0.9l0.7,1.7l0.8,1.6l0.4,0.8l0.5,0.8c-10.3,8.6-17.3,24.4-17.3,40.4c0,8.6,2.8,22.6,16.8,22.6c7.3,0,14.1-5.1,19.6-12.5
		c-1.1,3.8-4.2,18.4-7.7,18.9c-18.3,2.5-34.4,11-34.4,27.7c0,11.2,12,13.8,19.9,11.5c13.3-3.7,22.2-18.5,28.1-33.7
		c8.3,0.9,16.6,2.9,24.7,5.3c11,3.3,21.9,7.3,33.1,10.6c5.6,1.7,11.3,3,17,4.3c5.7,1.3,11.4,2.5,17.1,3.6
		c11.5,2.1,23.1,3.7,34.7,4.3c11.7,0.6,23.5,0.2,35-2c11.5-2.2,22.9-6.3,32.4-13.3c4.8-3.5,9.1-7.6,12.7-12.2
		c3.6-4.6,6.6-9.8,9-15.1c4-8.9,6.7-18.2,8.8-27.7c2.2,1.4,3.9,9,5.6,7.6C662.5,110,665.2,84.4,665,84.3z M418.9,147.2
		c-1.9,6.8-6,13.8-10.7,18.7c-3.7,3.9-10,8.8-15.5,5.4c-5.6-3.5-1.6-11.9,1.8-15.4c4.5-4.6,11.3-7.6,17.4-9.5
		c0.5-0.2,7.5-1.9,7.5-1.3C419.2,145.8,419.1,146.5,418.9,147.2z M413.5,119.1c-4.2,0-7.3-3-7.3-9.7c0-14.6,5.8-35.9,22-35.9
		c2,0,4,0.3,6.3,1.1l-7.5,36C423.4,115.6,417.7,119.1,413.5,119.1z"/>
</g>
<path d="M330.2,132.6l-0.8,0.7h-4.8c-0.1-0.3-0.1-0.5-0.1-0.6v-0.1l0.1-0.1c-0.4-0.3-0.6-0.8-0.6-1.4c0-0.5,0.2-0.8,0.6-0.9
	c0.4-0.1,0.6-0.4,0.7-0.9v-1c0.1,0,0.2-0.1,0.3-0.2c0.1-0.1,0.2-0.2,0.3-0.2l-0.1-0.3c0.1-0.2,0.2-0.6,0.4-1.2
	c0.2-0.6,0.4-1.2,0.6-1.9c0.2-0.7,0.5-1.3,0.7-1.9c0.2-0.6,0.4-1.1,0.5-1.3c0-0.1,0-0.3,0.1-0.7c0.1-0.4,0.1-0.6,0.1-0.7
	c0.1-0.1,0.2-0.3,0.3-0.6c0-0.1,0.1-0.3,0.3-0.6c0.2-0.3,0.3-0.5,0.4-0.6c0.1-0.2,0.3-0.6,0.6-1.1c0.3-0.6,0.5-0.9,0.6-1.1
	c0.2-0.5,0.5-1.3,1-2.6c0.5-1.3,1-2.6,1.5-3.9c0.5-1.4,1-2.7,1.6-3.9c0.5-1.3,0.9-2.1,1.1-2.6c0-0.1,0.1-0.4,0.4-0.9
	c0.2-0.5,0.4-0.9,0.5-1.1c1-2.1,2.1-4.1,3.3-6c1.2-1.9,2.2-4,3-6.1c0.4-0.9,0.6-1.8,0.6-2.5c0-0.7,0.1-1.6,0.4-2.5
	c1.3-4.2,2.4-8.5,3.5-12.7c0.3-1.2,0.6-2.4,0.9-3.7c0.9-1.7,1-4.3,1-6.2c0-0.6,0-1.1,0-1.5c0-0.6-0.1-1.1-0.3-1.7
	c-0.6-1.7-1.3-3.3-2.1-4.9c-0.8-1.5-1.5-3.2-2-4.9c0-0.1-0.1-0.4-0.3-0.8c-0.2-0.5-0.4-1-0.6-1.6c-0.2-0.6-0.4-1.2-0.5-1.8
	c-0.1-0.6-0.3-1.1-0.4-1.3c-0.1-0.2-0.2-0.4-0.3-0.8c-0.1-0.3-0.1-0.6-0.1-0.8c0-0.2,0-0.7-0.1-1.4c-0.1-0.8-0.2-1.2-0.3-1.4
	c0-0.2-0.1-0.6-0.2-1.3c-0.1-0.7-0.3-1.1-0.4-1.3c0-0.1,0-0.3-0.1-0.5c0-0.2-0.1-0.4-0.1-0.6c0-0.3,0-0.8-0.1-1.4
	c-0.1-0.7-0.2-1.4-0.4-2.1c-0.1-0.8-0.3-1.5-0.4-2.2c-0.1-0.7-0.1-1.2-0.1-1.5c0.2-0.1,0.2-0.2,0-0.4c0-0.2,0-0.7-0.1-1.4
	c-0.1-0.7-0.1-1.2-0.1-1.4c-0.1-1.1-0.2-2-0.2-2.7c0-0.7-0.1-1.4-0.2-2.1c-0.1-0.7-0.1-1.3-0.1-1.8V17c0.1-1.9,0.2-3.9,0.4-6
	c0.1-1.6,0.6-3.7,1.7-5c1.8-2,3-0.3,4.2,1.3c0.6,0.8,1,1.3,1.2,1.5c0.2,0.3,0.5,0.8,1.1,1.5c0.5,0.7,0.8,1.1,0.9,1.2
	c0.2,0.3,0.6,0.9,1.1,2c0.6,1,0.9,1.7,1.1,2c0.1-0.7,0.2-1.5,0.4-2.4c0.2-0.8,0.6-1.6,1.1-2.3l2-2c0.7-0.7,1.5-1.1,2.4-1.2
	c0.9-0.1,1.8-0.2,2.7-0.2h1.8c0.6,0.1,1.2,0.4,2,1c0.1,0,0.2,0,0.4,0.1c0.8,0.4,1.9,0.8,3.1,1.2c1.2,0.4,2.1,1,2.7,1.8
	c0.3,0.1,0.8,0.3,1.5,0.5c0.7,0.2,1.5,0.5,2.3,0.8c0.8,0.3,1.6,0.5,2.3,0.7c0.7,0.2,1.2,0.3,1.5,0.4c0.1,0.1,0.5,0.3,1.3,0.6
	c0.8,0.3,1.4,0.6,1.8,0.8c0.4,0.2,0.7,0.4,1.1,0.6c0.3,0.2,0.5,0.5,0.5,1v0.4c-0.2,0.7-0.4,1.3-0.6,1.9c-0.2,0.6-0.5,1.2-0.9,1.9
	c-0.2,0.2-0.4,0.6-0.8,1.3c-0.3,0.7-0.5,1.1-0.6,1.3c-0.8,1-1.4,2.1-2,3.1c-0.6,1-1.3,2.1-2,3.1c-1.1,1.4-2.3,2.8-3.7,4.1
	c-1.3,1.3-2.6,2.6-3.9,3.8c-0.2,0.2-0.5,0.6-0.8,1.1c-0.4,0.6-0.6,0.9-0.7,1.1l-0.6,1.1v6.8c0,0.2,0.1,0.3,0.3,0.4
	c0.2,0,0.3,0,0.4-0.1c0.2,0.2,0.4,0.5,0.6,0.8c0.2,0.4,0.4,0.7,0.6,0.8c0.3,0.1,0.4,0.2,0.4,0.3c0.3,0.3,0.5,0.4,0.6,0.4
	c0,0.1,0.1,0.3,0.3,0.6c0.1,0.1,0.3,0.2,0.6,0.3c0.1,0,0.3,0.2,0.6,0.7c0.2,0.1,0.5,0.4,1,0.9c0.5,0.5,0.8,0.8,1,0.9
	c0.1,0.2,0.5,0.8,1.1,1.7c0.7,0.9,1.1,1.6,1.4,2.1c0.8,1.2,1.4,2.5,1.8,3.9c0.3,1.4,0.5,2.8,0.6,4.3v3c0.1,0.5,0.2,0.8,0.3,0.8
	c0,0.2,0.1,0.6,0.3,1.3c0.2,0.7,0.3,1.1,0.4,1.3c0,0.3,0.1,0.8,0.2,1.4c0.1,0.7,0.3,1.4,0.4,2.1c0.1,0.8,0.3,1.5,0.4,2.1
	c0.1,0.7,0.2,1.1,0.2,1.4c0.2,0.8,0.4,1.4,0.6,2c0.2,0.6,0.4,1.3,0.4,2c0,0.3-0.2,0.4-0.7,0.4c-0.2,0-0.4,0-0.5-0.1
	c-0.1,0-0.3-0.1-0.5-0.1v0.6c-0.2,0-0.3,0-0.4-0.1c-0.1-0.1-0.2-0.1-0.4-0.1H377l-0.1,0.1c0.2,0.2,0.3,0.4,0.3,0.6h-0.3v0.6h-0.4
	l-0.7,0.3c-0.1-0.1-0.1-0.2-0.1-0.3c-0.1-0.1-0.2-0.3-0.4-0.6c-0.1-0.3-0.2-0.5-0.2-0.6c-0.2,0.2-0.3,0.4-0.4,0.5
	c0,0.1-0.2,0.2-0.5,0.2c-0.2,0-0.3-0.1-0.4-0.4c-0.1-0.3-0.3-0.4-0.7-0.4H373c-0.2,0.3-0.3,0.5-0.3,0.6c-0.2,1-0.4,2.1-0.5,3.1
	c-0.1,1-0.2,2.1-0.2,3.1c0,1.9,0.1,3.7,0.4,5.4c0.3,1.7,0.4,3.5,0.4,5.4c0,2.9-0.3,5.6-1,8.2c0,0.2-0.1,0.7-0.4,1.4
	c-0.3,0.8-0.4,1.2-0.4,1.4c-0.6,1.6-0.8,3.1-0.8,4.6v1c0.1,0.4,0.1,0.9,0.1,1.7c0,0.8,0,1.2,0.1,1.4c0,0.1,0,0.3,0.1,0.6
	c0.1,0.3,0.1,0.5,0.1,0.6v1.7c0.3,0.3,0.4,0.5,0.4,0.6v0.3c0,0.3-0.1,0.5-0.2,0.8c-0.1,0.2-0.3,0.5-0.4,0.8
	c-0.1,0.5-0.1,0.8-0.1,1.1c0,0.3,0,0.7,0,1.1c0,0.5,0,1,0,1.5c0,0.5,0.1,0.9,0.3,1.4c-0.1,0.1-0.3,0.1-0.6,0.1c-0.2,0-0.3,0-0.3-0.1
	c-0.1-0.1-0.2-0.3-0.2-0.6c0-0.3-0.1-0.5-0.1-0.6c-0.2,0.1-0.3,0.5-0.4,1.2c0,0.7-0.2,1.2-0.5,1.3c-0.9,0.2-1.9,0.3-3,0.4
	c-1,0-2,0.1-3,0.1c-0.2-0.1-0.4-0.2-0.5-0.4c-0.1-0.1-0.3-0.2-0.4-0.2V132c-0.1-0.2-0.1-0.3-0.1-0.4v-0.1v-0.1
	c0.1-0.2,0.3-0.6,0.6-1.1c0.3-0.6,0.5-0.9,0.6-1.1c0.1-0.3,0.2-0.5,0.3-0.6c0.2-0.9,0.4-1.9,0.6-2.8c0.2-0.9,0.4-1.9,0.7-2.8
	c0.1-0.3,0.1-0.5,0.1-0.6c0-0.1,0-0.4,0.1-1c0-0.6,0.1-0.9,0.1-1c0.2-0.9,0.4-1.8,0.6-2.6c0.2-0.8,0.3-1.7,0.3-2.6
	c0-0.2,0-0.7-0.1-1.5c0-0.8-0.1-1.5-0.2-1.8c0-0.2,0-0.8-0.1-2c-0.1-1.1-0.1-1.8-0.1-2c0-0.4,0-1.1-0.1-2c0-1-0.1-2-0.1-3.2
	c0-1.1-0.1-2.2-0.1-3.2c0-1-0.1-1.7-0.1-2c-0.2-1-0.4-2-0.6-3c-0.2-0.9-0.3-1.9-0.4-3c0-0.5,0-1.4-0.1-2.9c0-1.1,0.1-2.4-0.3-3.4
	c-0.2,0.1-0.3,0.2-0.4,0.4c-0.4-0.3-1,0.1-0.9,0.6c-0.2-0.6-1.3-0.7-1.6-0.1c0.3-0.7-2-1-2.4,0.1c-0.4,0-0.9-0.1-1.2-0.4
	c0,0.3,0,0.6,0,0.8c-0.3-0.1-0.7-0.3-1-0.4c0,0.3,0,0.6,0,0.8c-0.7-0.5-1.1-0.7-1.7,0.3h-0.1c-0.1-0.1-0.2-0.2-0.4-0.2
	c-0.1,0-0.2-0.1-0.2-0.2c-1,1.3-1.8,2.7-2.3,4.2c-0.5,1.5-1.1,2.9-1.9,4.3c-0.6,0.8-1.2,1.6-1.9,2.3c-0.7,0.7-1.3,1.5-1.8,2.5
	c-0.1,0.2-0.3,0.5-0.5,1.1c-0.2,0.5-0.5,1.1-0.8,1.8c-0.3,0.7-0.6,1.2-0.8,1.8c-0.2,0.5-0.4,0.8-0.5,0.9c-0.1,0.1-0.2,0.2-0.2,0.4
	c0,0.1-0.1,0.2-0.2,0.2c-0.3,0.4-0.8,1-1.4,2c-0.7,0.9-1.4,1.9-2.1,2.9c-0.7,1-1.5,1.9-2.1,2.8c-0.7,0.9-1.1,1.5-1.4,1.9
	c-0.2,0.2-0.4,0.6-0.7,1.1c-0.3,0.6-0.5,0.9-0.6,1.1c-0.2,0.3-0.6,1-1.1,2.1c-0.1,0.2-0.1,0.6-0.1,1.3c0.1,0.7,0.1,1.1,0.1,1.3
	c0,0.1,0,0.3-0.1,0.5c0,0.2-0.1,0.4-0.2,0.4c0,0.1-0.2,0.3-0.5,0.6c-0.3,0.3-0.5,0.5-0.6,0.6c-0.5,0.7-0.7,1.3-0.8,2
	c0,0.7-0.1,1.4-0.2,2.1l-0.4-0.1c0.3,0.3,0.4,0.7,0.4,1.3v0.6c-0.1,0.1-0.2,0.3-0.3,0.6c-0.1,0.5-0.1,0.8-0.1,1
	c0,0.1-0.2,0.2-0.6,0.4L330.2,132.6z M375.2,19.8v-0.4c-1.1-0.8-1.9-1.4-2.3-1.6c-0.2-0.2-0.4-0.4-0.8-0.6c-0.3-0.2-0.6-0.4-0.9-0.4
	c-0.4,0-0.6,0.1-0.7,0.4v0.6c-0.2,0.5-0.6,0.8-1.2,1.1c-0.6,0.3-1.2,0.4-1.6,0.3c-0.1,0.2-0.2,0.4-0.4,0.8c-0.1,0.3-0.3,0.6-0.4,0.8
	c-0.1,0.2-0.2,0.5-0.2,0.8c0,0.4-0.2,0.7-0.4,0.8l-3.7,3.7c-0.1,0-0.2,0-0.3,0.1c-0.1,0.1-0.2,0.1-0.3,0.1H362h-0.1
	c-0.1,0-0.3,0-0.7-0.1H361h-0.1c-0.3,0.3-0.4,0.8-0.4,1.5c0,0.7,0.2,1.2,0.7,1.6c0.5,0.4,1,0.6,1.7,0.6h0.3c0.1,0,0.4-0.1,0.8-0.4
	c0.5-0.3,0.8-0.4,0.8-0.4c0.2-0.1,0.8-0.4,1.7-0.8c0.9-0.5,1.5-0.8,1.7-0.8c0.1-0.1,0.2-0.2,0.3-0.2c0.1,0,0.2-0.1,0.3-0.2
	c1.2-1,2.3-2.2,3.3-3.5C373,22.2,374.1,21,375.2,19.8z M353.6,22.4V22c-0.2-0.2-0.6-0.4-1.1-0.6c-0.6-0.2-0.9-0.4-1.1-0.5
	c-0.1-0.1-0.3-0.3-0.7-0.6c-0.2-0.2-0.7-0.7-1.4-1.6c-0.8-0.9-1.2-1.4-1.4-1.6l-1.7-1.7v0.1v0.1c0,0.3,0,0.8,0,1.4
	c0,0.7,0,1.4,0.1,2.1c0,0.8,0.1,1.5,0.1,2.1c0,0.7,0,1.1,0,1.4c0.2,0.2,0.4,0.7,0.7,1.6c0.3,0.8,0.5,1.4,0.7,1.6
	c0.1,0.3,0.2,0.6,0.3,0.9c0.1,0.3,0.3,0.5,0.7,0.5h0.3c1-0.2,2.1-0.7,3.1-1.7C353.1,24.5,353.6,23.5,353.6,22.4z"/>
<path d="M325,134.6c-0.4-0.1-0.6-0.4-0.6-0.8v-0.1c0-0.3,0-0.4,0.1-0.4l0.4-0.1c0.1,0,0.3-0.1,0.6-0.4c0.4-0.3,0.7-0.5,1-0.6
	c0.3-0.1,0.5-0.5,0.5-1c0-0.2,0-0.4,0-0.7c0-0.3,0-0.5-0.1-0.7c0-0.1,0-0.4-0.1-0.9c-0.1-0.5-0.1-0.8-0.1-0.9c0-0.2,0-0.6,0-1.4
	c0-0.7,0-1.2-0.1-1.3c0-0.3,0-0.7-0.1-1.2c0-0.5-0.1-0.8-0.1-0.9c-0.4-1.9-0.8-3.6-1.3-5.4c-0.5-1.7-1.2-3.4-2.2-4.9
	c-0.1-0.1-0.3-0.4-0.5-0.8c-0.2-0.5-0.5-1-0.8-1.5c-0.3-0.5-0.6-1-0.8-1.5c-0.2-0.5-0.4-0.7-0.5-0.8l-1.4-2.8
	c-0.1-0.2-0.3-0.6-0.6-1.3c-0.3-0.6-0.5-1-0.6-1.1c0-0.2,0-0.4-0.1-0.6c-0.1-0.2-0.2-0.3-0.3-0.3c-0.2-0.4-0.5-1-1-1.7
	c-0.5-0.8-0.7-1.3-0.8-1.5c-0.1-0.1-0.3-0.4-0.6-0.8c-0.3-0.5-0.5-0.7-0.6-0.8c0-0.1-0.1-0.3-0.3-0.7c-0.2-0.4-0.4-0.7-0.6-0.8
	c0-0.1-0.1-0.3-0.3-0.7c0-0.2,0-0.6,0-1.1c0-0.6,0-0.9-0.1-1.1v-0.4c-0.4-1.8-0.6-3.8-0.6-6v-1c0-0.2,0-0.6,0.1-1.4
	c0.1-0.7,0.2-1.5,0.2-2.4c0-0.8,0.1-1.6,0.1-2.3c0-0.7,0.1-1.1,0.1-1.3c0-0.2,0-0.7,0.1-1.5c0-0.8,0.1-1.3,0.1-1.5v-3.3
	c0-0.1,0-0.3,0.1-0.8c0-0.4,0.1-0.7,0.2-0.9v-0.4v-0.1v-0.1c0-0.1,0-0.1-0.1-0.1c-0.1,0-0.1,0.1-0.1,0.4c0,0.2,0,0.3-0.1,0.4
	c0,0.1,0,0.2-0.1,0.4c0,0.2-0.1,0.3-0.1,0.4c-0.2,1.9-0.4,3.6-0.6,5.4c-0.2,1.7-0.5,3.5-0.8,5.2l-0.1,8.1c-0.1,1.2-0.3,2.3-0.7,3.3
	c-0.4,1-0.7,2.1-0.8,3.2c0,0.3,0,0.8,0,1.5c0,0.7,0,1.3-0.1,2.1c0,0.7-0.1,1.5-0.1,2.2c0,0.7,0,1.1,0,1.4c0,0.9-0.1,2-0.4,3.1
	c0,0.1,0,0.3-0.1,0.6c-0.1,0.3-0.1,0.5-0.1,0.6c0,0.1,0,0.3-0.1,0.8c-0.1,0.4-0.2,0.9-0.3,1.3c-0.1,0.5-0.2,0.9-0.3,1.3
	c-0.1,0.4-0.1,0.7-0.1,0.8c0,0.1-0.1,0.4-0.2,1c-0.1,0.6-0.3,1-0.3,1c-0.4,1.8-0.6,3.7-0.6,5.9v1c0,0.4,0,0.6,0.1,0.7v1.1
	c0.2,0.5,0.4,0.9,0.6,1.2c0.2,0.3,0.3,0.8,0.3,1.3c0,0.2,0,0.4-0.1,0.6c0,0.2-0.1,0.5-0.1,0.8c0.2,1,0.5,2,1,2.9
	c0.5,0.9,0.8,1.8,0.8,2.9c0,0.2,0,0.3,0.1,0.3c0,0,0,0.2-0.2,0.3c-0.2,0.2-0.3,0.3-0.3,0.4v0.1c-0.1,0.4-0.4,0.6-1,0.6
	c-0.5,0.1-0.9,0.1-1.3,0.1c-0.3,0-0.6,0-1,0h-0.4c-0.5-0.1-0.9-0.1-1.4-0.1c-0.5,0-0.9-0.1-1.4-0.3c-0.3-0.1-0.4-0.4-0.4-1
	c0-0.2,0.2-0.5,0.6-0.8c0.2-0.3,0.3-0.6,0.3-0.8c0-0.4,0-0.7,0-1v-0.7c-0.1-0.2-0.1-0.6-0.1-1.1c0-0.7,0-1,0-1.1
	c0-0.1-0.1-0.4-0.3-0.8c0-0.2,0-0.6,0-1.1c0-0.6,0-1.1-0.1-1.3c-0.2-0.7-0.3-1-0.3-1.1v-0.6c0-0.6,0-1.1,0.1-1.7
	c0.1-0.6,0.1-1.1,0.1-1.7v-0.8c0-0.3,0-0.7-0.1-1.3c-0.1-0.6-0.2-1.3-0.2-2c0-0.7-0.1-1.4-0.1-2.1c0-0.6-0.1-1.1-0.1-1.4
	c0-0.1,0-0.3,0-0.7c0-0.4,0-0.8-0.1-1.3c0-0.5-0.1-0.9-0.1-1.3c0-0.5,0-0.7,0-0.8c0-0.2-0.1-0.8-0.2-1.9c-0.1-1.1-0.2-1.7-0.2-1.9
	c-0.1-1.2-0.1-2-0.1-2.4c0-0.6,0-1.1,0-1.7c0-0.6,0.1-1.3,0.3-1.8c0-0.1,0-0.3,0.1-0.7c0-0.4,0.1-0.8,0.2-1.2
	c0.1-0.4,0.2-0.8,0.2-1.2c0-0.4,0.1-0.6,0.1-0.7c0-0.1,0-0.3,0.1-0.5c0-0.2,0.1-0.4,0.1-0.5v-4v-4.2c0-0.2,0-0.5-0.1-0.9
	c0-0.4-0.1-0.7-0.1-0.8c0-0.5-0.1-1.3-0.3-2.4c-0.2-1.1-0.4-2.3-0.6-3.6c-0.2-1.3-0.3-2.4-0.5-3.5c-0.1-1.1-0.3-1.8-0.3-2.3
	c0-0.2-0.1-0.7-0.3-1.5c-0.2-0.8-0.3-1.3-0.3-1.5v-0.8v-0.8c0-0.1,0.1-0.6,0.2-1.4c0.1-0.8,0.3-1.5,0.5-2c0.2-0.9,0.5-1.8,0.8-2.6
	l3.1-6.6V54c-0.4,0-0.7,0.1-1,0.2c-0.3,0.1-0.7,0.2-1,0.2c-0.2,0-0.4,0-0.7,0c-0.3,0-0.5-0.1-0.7-0.3c-0.1-0.1-0.3-0.3-0.6-0.5
	c-0.3-0.2-0.4-0.4-0.4-0.5c-0.1,0-0.3-0.1-0.7-0.4c-0.4-0.3-0.6-0.5-0.7-0.6c-0.1,0-0.2,0-0.3-0.1c-0.1-0.1-0.2-0.1-0.3-0.1
	l-2.4-2.4c-0.6-0.6-1.2-1.5-1.8-2.6c-0.7-1.1-1-2-1-2.9c0-0.6,0.2-1.2,0.5-1.7c0.3-0.5,0.7-1,1.2-1.5c0.8-0.9,1.7-1.8,2.6-2.6
	c0.9-0.8,1.9-1.6,2.8-2.4c0.9-0.6,1.6-1.3,2.1-1.8c0.1-0.2,0.3-0.5,0.7-1c0.4-0.5,0.6-0.7,0.7-0.8c0.6-0.7,1.2-1.4,1.8-2
	c0.6-0.6,1.3-1.2,2.1-1.8c0.9-0.8,2.2-1.5,3.8-2c1-0.4,2.1-0.6,3.1-0.7c1.1-0.1,2-0.6,2.7-1.7c0.1-0.2,0.1-0.5,0.1-0.8
	c0-0.8-0.3-1.5-0.8-2c-0.1-0.2-0.3-0.4-0.6-0.7c-0.3-0.3-0.5-0.5-0.6-0.6H315c-0.2,0-0.3,0-0.4,0.1c-0.1,0.1-0.2,0.1-0.4,0.1
	c-0.2,0-0.4,0-0.8-0.1c-0.3,0-0.6-0.2-0.8-0.3c-0.2-0.2-0.3-0.3-0.3-0.5c0-0.1-0.2-0.2-0.5-0.2H311c-0.1,0-0.2-0.1-0.4-0.2
	c-0.2-0.1-0.3-0.2-0.4-0.2c-0.5-0.5-0.7-0.8-0.7-1c0-0.6,0.2-0.9,0.6-1c0-0.2,0-0.5,0.1-0.8c0-0.4,0.1-0.6,0.1-0.8V15l0.1-0.7
	c-0.1-0.3-0.1-0.5-0.1-0.6c0-0.2,0-0.4,0-0.6c0-0.2,0-0.4-0.1-0.6c-0.2-0.2-0.4-0.4-0.6-0.6c-0.2-0.2-0.3-0.5-0.3-0.8V11
	c0-0.1,0.1-0.4,0.2-0.8c0.1-0.5,0.3-0.8,0.3-1c0.2-0.5,0.3-0.7,0.4-0.8c0-0.1,0-0.2,0.1-0.3c0-0.1,0.1-0.3,0.1-0.3L310,7.3V7.2
	c0.2,0,0.3-0.1,0.3-0.4c0.1-0.1,0.3-0.3,0.5-0.6c0.2-0.3,0.4-0.5,0.5-0.6l1.3-1.3c0.2-0.1,0.3-0.1,0.4-0.1l0.4-0.4
	c0.1-0.1,0.2-0.3,0.4-0.6c0.2-0.4,0.4-0.6,0.6-0.6c0.5-0.1,0.7-0.1,0.8-0.1h0.6c0-0.1,0-0.1,0.1-0.1h0.1h0.8c0.1,0,0.2,0,0.4-0.1
	c0.8-0.3,1.7-0.4,2.5-0.4c0.3,0,0.5,0,0.6,0.1c0.1,0,0.3,0.2,0.6,0.3h0.1c0.2,0,0.3,0,0.3,0.1c0.5,0.1,1.1,0.3,1.8,0.7
	c0.4,0.2,0.7,0.3,1,0.4c0.3,0.1,0.6,0.2,0.8,0.4l0.6,0.6c0.1,0,0.1,0.1,0.1,0.3v0.3c0.1,0.2,0.2,0.3,0.3,0.3c0.1,0,0.2,0.2,0.4,0.3
	c0.3,0.4,0.5,0.7,0.7,1c0.2,0.3,0.4,0.7,0.6,1c0.1,0.2,0.2,0.3,0.3,0.5c0.1,0.1,0.1,0.3,0.1,0.5c0,0.1,0,0.2-0.1,0.2
	c0,0-0.1,0.1-0.1,0.2c0,0.2,0,0.3,0.1,0.4c0,0.1,0.1,0.2,0.1,0.4c0,0.3,0,0.5-0.1,0.6v-0.1v0.6v0.6v1c0.2,0.4,0.3,0.7,0.3,0.8
	c0,0.3,0,0.6-0.1,0.9c0,0.3-0.1,0.6-0.1,0.9v0.1c0,0.1,0,0.3,0.1,0.6c0.1,0.3,0.1,0.5,0.1,0.6c-0.3,0.3-0.4,0.6-0.4,0.8v0.6h0.1
	l-0.1,0.1c0,0.4-0.1,0.6-0.4,0.6h-0.7c-0.4,0.1-0.7,0.2-1,0.2c-0.3,0-0.6,0.1-1,0.2l-0.1,0.1h-0.1v0.4c0,0.3,0.1,0.6,0.3,0.8
	c0.2,0.3,0.5,0.4,0.8,0.4c0.3,0,0.5,0,0.7-0.1c0.6-0.7,1.2-1.2,1.9-1.7c0.7-0.5,1.5-0.8,2.4-0.8c1.2,0,2.1,0.5,2.8,1.5
	c0.6,1,1.2,1.9,1.7,2.9c0.7,1.3,1.3,2.6,1.7,3.9c0.1,0.3,0.2,0.8,0.4,1.5c0.2,0.7,0.4,1.5,0.6,2.3c0.2,0.8,0.4,1.6,0.6,2.4
	c0.2,0.7,0.3,1.3,0.4,1.5c0,0.2,0,0.5,0.1,1c0.1,0.5,0.2,1.1,0.3,1.7c0.1,0.7,0.3,1.3,0.3,2c0.1,0.7,0.2,1.2,0.3,1.5
	c0.1,0.4,0.1,0.8,0.1,1.4v0.4c0,0.1-0.1,0.3-0.2,0.7c-0.1,0.4-0.2,0.6-0.2,0.7c-0.2,0.4-0.3,0.7-0.3,1c0,0.3-0.2,0.7-0.3,1.2l-1.4,6
	c0,0.1-0.1,0.3-0.2,0.8c-0.1,0.4-0.3,0.7-0.3,0.9c-0.1,0.3-0.3,0.9-0.6,1.8c-0.3,0.9-0.6,1.5-0.8,1.8c-0.5,1-1,2-1.5,3.1
	c-0.6,1-1.3,1.9-2.1,2.7c-0.2,0.2-0.5,0.3-1,0.3c-0.5,0-0.9,0.1-1,0.1c-0.5,0-0.9,0-1.2-0.1c-0.3,0-0.7-0.1-1.2-0.1h-0.3h-0.1
	c0,0.2,0,0.3-0.1,0.4c-0.2,0.7-0.3,1.4-0.4,2c-0.1,0.6-0.1,1.3-0.1,2c0,0.6,0,1.1,0.1,1.7c0,0.6,0.1,1.1,0.1,1.7
	c0,0.7-0.1,1.5-0.3,2.4c-0.2,0.8-0.4,1.7-0.6,2.5c-0.1,0.3-0.3,0.8-0.5,1.5c-0.2,0.7-0.5,1.5-0.8,2.3c-0.3,0.8-0.5,1.6-0.7,2.3
	c-0.2,0.7-0.3,1.2-0.4,1.5c-0.1,0.2-0.3,0.9-0.5,2c-0.2,1.2-0.4,2-0.6,2.6c-0.2,0.8-0.3,1.6-0.4,2.4c-0.1,0.7-0.1,1.5-0.1,2.4V94
	c0.2,0.7,0.4,1.2,0.8,1.6c0.3,0.4,0.7,0.9,1.2,1.3c0.7,1,1.5,2.1,2.2,3.3c0.7,1.2,1.3,2.4,1.7,3.7c0,0.2,0.1,0.6,0.2,1.3
	c0.1,0.7,0.2,1.1,0.2,1.2c0.2,0.7,0.4,1.5,0.6,2.2c0.2,0.7,0.4,1.5,0.6,2.3c0.1,0.2,0.2,0.8,0.3,1.7c0.1,1,0.3,1.6,0.3,1.7
	c0,0.2,0.1,0.7,0.3,1.7c0.2,0.9,0.4,1.6,0.5,2.1c0.3,1.2,0.9,2.2,1.9,2.9c1,0.7,1.5,1.7,1.5,2.9c0,0.7-0.2,1.2-0.5,1.7
	c-0.3,0.5-0.5,1-0.6,1.5l-0.3,4.6c0,0.4-0.1,0.7-0.3,1.1c-0.1,0-0.3,0.2-0.7,0.6c-0.2,0.3-0.4,0.6-0.6,0.9c-0.2,0.3-0.5,0.5-1,0.5
	h-4l-0.1-0.1C325.7,134.7,325.4,134.7,325,134.6z M299.6,45.9c0.2,0.7,0.4,1.2,0.5,1.4c0.1,0.1,0.2,0.2,0.2,0.3
	c0,0.1,0.1,0.2,0.2,0.3c0.4,0.5,0.7,0.9,1.1,1.3c0.4,0.4,0.8,0.8,1.3,1.2c0.1,0.1,0.2,0.1,0.3,0.1c0.2-0.1,0.4-0.2,0.6-0.3
	c0.2-0.1,0.4-0.2,0.6-0.3c0.3-0.2,0.6-0.4,0.8-0.6c0.3-0.2,0.6-0.3,1-0.3c0.2,0,0.4,0,0.6,0.1c0.2,0,0.4,0.1,0.6,0.1l0.1-0.3
	c0.2,0,0.3-0.2,0.3-0.6l0.3-0.6c0.2-0.4,0.4-0.7,0.6-0.9c0.2-0.2,0.4-0.5,0.6-0.8c0.1-0.2,0.2-0.4,0.3-0.7c0.1-0.3,0.3-0.5,0.3-0.6
	c0.2-0.5,0.3-1,0.4-1.6c0.1-0.6,0.2-1.1,0.3-1.6c0-0.3-0.1-0.4-0.3-0.4c-0.2,0-0.4-0.1-0.6-0.3c-0.7-0.4-1.1-0.7-1.3-1.1
	c-0.2-0.4-0.5-0.8-0.9-1.4c0-0.1,0-0.1-0.1-0.1c-0.2,0-0.3,0-0.4,0.1l-0.6,0.4c-1.3,0.7-2.6,1.5-3.8,2.2c-1.3,0.7-2.4,1.7-3.4,2.8
	c-0.1,0.2-0.1,0.4-0.1,0.6v0.1C299.2,44.7,299.4,45.2,299.6,45.9z M327.5,57.8c0.4,0.6,0.6,0.9,0.8,1c0.1,0.1,0.3,0.2,0.7,0.3h0.4
	c0.5,0,0.8-0.1,0.9-0.3c0.1-0.2,0.3-0.6,0.5-1c0.1-0.4,0.3-1.2,0.6-2.4c0.3-1.3,0.6-2.1,0.8-2.6c0-0.1,0-0.3,0.1-0.6
	c0-0.3,0.1-0.6,0.1-0.8c0-0.3,0-0.8,0.1-1.5c0.1-0.7,0.2-1.5,0.3-2.3c0.1-0.8,0.2-1.6,0.3-2.3c0.1-0.7,0.1-1.2,0.1-1.5
	c0-0.2,0-0.5,0.1-0.9c0.1-0.4,0.1-0.7,0.1-0.9v-1v-1c-0.1-0.4-0.2-0.7-0.3-1c-0.1-0.3-0.3-0.6-0.5-0.9c-0.2,0.3-0.3,0.6-0.3,0.8
	c0,0.3,0,0.6-0.1,1c-0.1,0.3-0.2,0.8-0.4,1.6c-0.2,0.8-0.3,1.3-0.4,1.5c-0.4,1.3-0.9,2.5-1.5,3.6c-0.6,1.1-1.2,2.3-1.9,3.5
	c-0.2,0.5-0.4,1-0.6,1.5c-0.2,0.5-0.4,1-0.5,1.5v2.6c0,0.2,0,0.4-0.1,0.7c0,0.3-0.1,0.5-0.1,0.6C326.9,57.1,327.2,57.4,327.5,57.8z"
	/>
</svg>
